# xmcd
#
# Track frame offsets:
#	150
#	14713
#	33965
#	46818
#	58324
#	72130
#	82427
#	100916
#	114153
#	128617
#	148741
#	165432
#	182538
#	192912
#	209932
#	224609
#
# Disc length: 3430 seconds
#
# Revision: 0
# Processed by: cddbd v1.5.2PL0 Copyright (c) Steve Scherf et al.
# Submitted via: dBpowerAMP V4.0
#
DISCID=f20d6410
DTITLE=Cary Fridley - Down South
DYEAR=2007
DGENRE=Blues
TTITLE0=When The Levee Breaks
TTITLE1=Pretty Saro
TTITLE2=Lonesome Homesick Blues
TTITLE3=Shuckin' The Brush
TTITLE4=North Country
TTITLE5=Going Down South
TTITLE6=You Led Me To The Wrong
TTITLE7=Come All You Fair and Tender Ladies
TTITLE8=Cheatin'
TTITLE9=God Don't Like It
TTITLE10=I Have No Mother Now
TTITLE11=Making Believe
TTITLE12=Dolly
TTITLE13=Scotland Man
TTITLE14=Wild Bill Jones
TTITLE15=Barlowe Knife
EXTD=
EXTT0=
EXTT1=
EXTT2=
EXTT3=
EXTT4=
EXTT5=
EXTT6=
EXTT7=
EXTT8=
EXTT9=
EXTT10=
EXTT11=
EXTT12=
EXTT13=
EXTT14=
EXTT15=
PLAYORDER=
